<svg width="181" height="58" viewBox="0 0 181 58" fill="none" xmlns="http://www.w3.org/2000/svg">
<g clip-path="url(#clip0_3_1110)">
<rect width="181" height="57.1441" fill="white"/>
<path d="M178.549 57.0245C178.549 57.0654 178.549 57.1032 178.549 57.1441H114.335V57.0183C114.417 57.0183 114.496 56.9994 114.578 56.9994H174.264C175.705 57.0078 177.133 57.0162 178.549 57.0245Z" fill="#F8D2A8"/>
<path d="M73.8945 23.1307C73.3722 23.373 66.7747 23.3636 66.309 23.1307C66.3311 22.8633 66.5702 22.857 66.7432 22.7878C67.0568 22.6847 67.3282 22.482 67.5162 22.2106C67.7041 21.9391 67.7984 21.6138 67.7846 21.2839C67.7846 17.6941 67.8129 14.1043 67.7846 10.5177C67.7846 9.08932 66.5261 8.31536 64.9688 8.69919C64.1664 8.92744 63.4176 9.31357 62.7664 9.83496C62.6712 9.90804 62.5961 10.0041 62.5482 10.1142C62.5004 10.2243 62.4813 10.3447 62.4927 10.4642C62.4927 14.0508 62.4927 17.6386 62.4927 21.2273C62.4671 21.5658 62.5537 21.9033 62.7391 22.1876C62.9245 22.4719 63.1983 22.6873 63.5184 22.8004C63.6474 22.8476 63.7952 22.8916 63.833 23.0552C63.4869 23.3352 49.2567 23.4013 48.6086 23.1182C48.6464 22.8602 48.8823 22.8382 49.0585 22.8035C49.3897 22.7192 49.6805 22.5204 49.8791 22.2422C50.0778 21.9641 50.1716 21.6246 50.144 21.2839C50.1586 17.777 50.1586 14.27 50.144 10.7631C50.144 9.94194 49.8293 9.59586 49.0334 9.41967C48.9228 9.39984 48.8192 9.35216 48.7322 9.28114C48.6452 9.21013 48.5778 9.11813 48.5363 9.01381C49.3071 8.74953 50.059 8.48211 50.8172 8.23042C51.8397 7.89377 52.8748 7.57915 53.8973 7.23936C54.6619 6.98452 54.8664 7.11037 54.8412 7.92524C54.687 12.3299 54.7877 16.7345 54.7594 21.1392C54.7594 21.6615 54.8097 22.1617 55.2502 22.5235C55.4747 22.7345 55.7598 22.8696 56.0652 22.9097C56.3707 22.9497 56.681 22.8928 56.9523 22.7469C57.6287 22.4323 57.8552 21.8314 57.8647 21.1424C57.8804 19.7549 57.8647 18.3674 57.8647 16.9831C57.8647 15.108 57.8647 13.2318 57.8647 11.3546C57.8647 9.90733 57.7923 9.8035 56.4206 9.26865C56.3724 9.23846 56.328 9.20254 56.2885 9.16168C56.2885 8.8219 56.5748 8.83133 56.7604 8.76526C58.2957 8.23041 59.8405 7.71444 61.379 7.19217C61.8666 7.02542 62.1309 7.19218 62.2064 7.67983C62.2568 7.99445 62.2977 8.32795 62.3197 8.652C62.3574 9.22461 62.5997 9.1837 62.9804 8.91313C63.7387 8.32491 64.5766 7.84718 65.469 7.4942C67.0736 6.92474 68.6907 6.7517 70.2732 7.52566C71.8558 8.29963 72.3497 9.82868 72.3812 11.4553C72.441 14.5511 72.4252 17.6532 72.3812 20.7522C72.3812 21.8031 72.614 22.599 73.7183 22.92C73.7563 22.9341 73.7899 22.958 73.8158 22.9892C73.8471 23.0334 73.8735 23.0808 73.8945 23.1307Z" fill="#EF8505"/>
<path d="M12.2387 11.6158C12.5124 11.9902 12.8459 11.9556 13.1322 12.0122C14.3224 12.2148 15.4497 12.6896 16.4262 13.3997C19.1068 15.4667 19.003 19.4026 16.2154 21.4098C14.8171 22.3745 13.1895 22.9539 11.4962 23.0899C7.9158 23.4737 4.31971 23.2409 0.729915 23.2976C0.556875 23.2976 0.35552 23.3353 0.248549 23.1119C0.311473 22.8445 0.563166 22.8382 0.75823 22.7564C1.10927 22.6389 1.41233 22.41 1.62132 22.1045C1.83031 21.7989 1.93379 21.4335 1.91602 21.0638C1.91602 15.3188 1.91602 9.57285 1.91602 3.82582C1.94506 3.4565 1.84791 3.08826 1.64044 2.78135C1.43298 2.47444 1.12749 2.24702 0.773966 2.13631C0.572611 2.05765 0.261131 2.07654 0.235962 1.73989C0.409002 1.55112 0.626091 1.62978 0.818008 1.62978C3.98307 1.62978 7.14499 1.59831 10.3101 1.62978C11.7 1.60608 13.0781 1.88858 14.3466 2.45722C16.1871 3.35074 17.1971 4.79484 17.1341 6.86188C17.0712 8.83139 15.9449 10.0867 14.2176 10.8607C13.5915 11.1564 12.9371 11.3578 12.2387 11.6158ZM8.39088 12.3331C7.9221 12.3331 7.59489 12.3488 7.26769 12.3331C6.87441 12.3079 6.72655 12.4621 6.72969 12.8616C6.72969 15.9386 6.72969 19.0177 6.72969 22.0988C6.72969 22.5204 6.87756 22.6746 7.3023 22.6715C8.15784 22.7096 9.01503 22.659 9.86014 22.5204C11.0368 22.2625 12.0625 21.7245 12.6036 20.5793C13.4845 18.7513 13.4814 16.8447 12.9874 14.9161C12.8704 14.4274 12.6333 13.9755 12.2976 13.6014C11.962 13.2273 11.5384 12.9428 11.0651 12.7736C10.2134 12.4448 9.30307 12.2949 8.39088 12.3331ZM6.73598 6.92795C6.73598 8.33429 6.73598 9.74064 6.73598 11.147C6.73598 11.5654 6.86497 11.729 7.296 11.7227C8.13355 11.7471 8.97124 11.6796 9.79407 11.5214C10.338 11.4214 10.842 11.1676 11.2462 10.7901C11.6505 10.4127 11.9381 9.92726 12.0751 9.39141C12.4153 8.08698 12.4764 6.72543 12.2544 5.39576C11.9618 3.22489 10.8134 2.2716 8.6174 2.24957C8.18952 2.24957 7.7585 2.27474 7.33061 2.24957C6.90273 2.2244 6.72025 2.36912 6.72969 2.83476C6.75172 4.2065 6.73598 5.57509 6.73598 6.92795Z" fill="#EF8505"/>
<path d="M163.13 1.77761C163.671 1.46299 164.284 1.40636 164.86 1.25534C166.062 0.940721 167.27 0.660715 168.475 0.364974C169.089 0.213957 169.362 0.418453 169.356 1.04769C169.334 3.4734 169.302 5.89911 169.284 8.32482C169.238 8.56568 169.267 8.81465 169.365 9.039C169.639 9.13024 169.778 8.89742 169.947 8.78416C171.124 8.00076 172.298 7.25197 173.757 7.07893C176.904 6.69824 179.326 8.11402 179.351 11.7573C179.368 14.7734 179.368 17.7896 179.351 20.8057C179.351 21.7905 179.54 22.5896 180.61 22.9105C180.685 22.9357 180.761 22.9766 180.858 23.0175C180.393 23.3321 173.858 23.4108 173.226 23.1654C173.226 22.8728 173.493 22.8917 173.657 22.8224C173.969 22.7189 174.24 22.5165 174.427 22.2457C174.614 21.975 174.708 21.6506 174.695 21.3217C174.695 17.6753 174.695 14.0257 174.695 10.3761C174.695 9.16484 174.16 8.62685 172.936 8.56707C171.742 8.52683 170.571 8.90026 169.62 9.62419C169.529 9.68886 169.457 9.77655 169.411 9.87827C169.365 9.98 169.347 10.0921 169.359 10.2031C169.359 13.9124 169.359 17.6218 169.359 21.3312C169.347 21.6507 169.434 21.9661 169.611 22.2331C169.787 22.5 170.042 22.705 170.341 22.8193C170.449 22.8515 170.549 22.9055 170.636 22.978C170.723 23.0505 170.793 23.14 170.844 23.2409C168.23 23.3447 165.719 23.3132 163.167 23.2597C163.186 23.1469 163.238 23.0425 163.318 22.9608C163.398 22.8791 163.502 22.8242 163.614 22.8036C163.958 22.6914 164.253 22.4675 164.455 22.1675C164.656 21.8676 164.751 21.5089 164.725 21.1487C164.737 15.3177 164.737 9.48785 164.725 3.65902C164.725 2.71516 164.482 2.42886 163.564 2.08593C163.416 2.04503 163.211 2.06706 163.13 1.77761Z" fill="#EF8505"/>
<path d="M18.3672 8.43811C18.7951 8.12349 19.3331 8.17383 19.8081 8.06686C21.0666 7.7837 22.3251 7.57291 23.5836 7.34953C24.4047 7.20166 24.5054 7.28661 24.4645 8.14866C24.2789 11.9241 24.3575 15.6995 24.3449 19.4561C24.3449 21.7654 25.5027 22.6274 27.7743 22.0045C27.9509 21.9555 28.1243 21.8956 28.2934 21.8251C29.5519 21.3249 29.5519 21.2557 29.6054 19.9154C29.706 16.8164 29.6494 13.7174 29.706 10.6216C29.7249 9.71861 29.6085 8.9824 28.5357 8.8188C28.435 8.80307 28.3595 8.72127 28.3595 8.55137C28.8566 8.199 29.4921 8.21788 30.0678 8.07945C31.2351 7.79629 32.4149 7.57291 33.5916 7.3338C34.1956 7.2111 34.3687 7.35583 34.3624 7.96304C34.3624 8.67722 34.2995 9.38826 34.2963 10.1024C34.2963 13.73 34.2963 17.3575 34.268 20.9851C34.268 21.8975 34.5071 22.5834 35.4227 22.9106C35.4919 22.9326 35.5422 23.0112 35.5988 23.2441L29.9829 23.6027C29.857 22.9987 29.7406 22.4323 29.6179 21.8471C29.1712 21.8692 28.8975 22.1618 28.5954 22.3851C27.7757 22.9788 26.8406 23.3939 25.8505 23.6036C24.8604 23.8133 23.8373 23.813 22.8474 23.6027C22.0198 23.4062 21.2753 22.9538 20.7195 22.31C20.1638 21.6661 19.825 20.8634 19.7515 20.0161C19.6068 18.3643 19.7861 16.7189 19.7515 15.0703C19.7305 13.5412 19.7379 12.0122 19.7735 10.4831C19.7924 9.63366 19.5722 8.99814 18.6566 8.78105C18.5434 8.7433 18.4395 8.67407 18.3672 8.43811Z" fill="#EF8505"/>
<path d="M130.535 7.57288H137.164C137.164 7.88749 136.963 7.90322 136.802 7.97559C136.267 8.22099 136.019 8.60483 136.22 9.19946C137.189 12.1128 138.156 15.0272 139.121 17.9427C139.165 18.0505 139.215 18.1556 139.272 18.2573C139.543 18.2573 139.587 18.0528 139.631 17.8829C140.575 15.1332 141.562 12.396 142.481 9.63677C142.767 8.76843 142.708 8.06369 141.607 7.89379C141.493 7.87806 141.367 7.82143 141.355 7.57917H145.064C145.105 7.86233 144.901 7.89379 144.728 7.92526C143.865 8.08886 143.416 8.65516 143.154 9.45115C141.672 13.8306 140.177 18.2038 138.671 22.5707C138.58 22.8413 138.611 23.266 138.256 23.3227C137.791 23.384 137.32 23.384 136.856 23.3227C136.654 23.2975 136.617 23.0081 136.541 22.8287C135.492 19.7266 134.444 16.6255 133.395 13.5255C133.329 13.3593 133.252 13.1975 133.165 13.0409C132.826 13.0567 132.829 13.3178 132.756 13.516C131.658 16.5584 130.554 19.6039 129.45 22.64C129.362 22.8885 129.365 23.2944 129.047 23.3321C128.486 23.435 127.91 23.4211 127.354 23.2912C127.232 23.2535 127.162 22.9955 127.099 22.8256C125.514 18.4901 123.933 14.1526 122.358 9.81297C122.025 8.89114 121.496 8.20841 120.527 7.92526C120.454 7.9112 120.389 7.87193 120.342 7.81438C120.296 7.75683 120.271 7.68469 120.272 7.61064H128.138C128.138 7.95357 127.848 7.90952 127.66 7.98503C126.898 8.29964 126.656 8.77787 126.904 9.53295C127.836 12.3519 128.765 15.172 129.692 17.993C129.732 18.2023 129.843 18.3913 130.007 18.5279C130.362 18.1661 130.425 17.691 130.589 17.2694C131.256 15.5642 131.897 13.8495 132.546 12.138C132.602 11.987 132.719 11.7982 132.675 11.6755C132.206 10.3573 132.288 8.7464 130.755 7.97559C130.675 7.94755 130.609 7.89088 130.568 7.81651C130.527 7.74215 130.516 7.65535 130.535 7.57288Z" fill="#EF8505"/>
<path d="M41.0355 43.2884C41.3124 43.603 41.7277 43.6911 42.0801 43.8704C44.4271 45.066 44.597 48.2751 43.2819 49.9898C42.2468 51.3646 40.765 51.8429 39.1415 51.997C36.31 52.2708 33.4343 52.06 30.5776 52.1292C30.0899 52.1292 29.9484 51.9624 29.9484 51.4999C29.9609 46.2563 29.9609 41.0126 29.9484 35.769C29.9484 35.2782 30.1088 35.1398 30.5776 35.1398C32.9656 35.1586 35.3567 35.1398 37.7446 35.1398C39.1348 35.1 40.5017 35.5021 41.649 36.2881C43.6783 37.7417 43.6406 41.2056 41.6994 42.6434C41.454 42.8385 41.1393 42.9455 41.0355 43.2884ZM36.1401 49.4235C37.0336 49.3763 38.1159 49.5241 39.1856 49.285C40.3276 49.0302 41.0261 48.2562 41.0733 47.196C41.1079 46.0822 40.5321 45.3366 39.3523 44.9936C39.0048 44.8785 38.6423 44.8149 38.2763 44.8049C36.6844 44.8049 35.0955 44.8206 33.5035 44.8049C33.0883 44.8049 32.9152 44.9118 32.9215 45.3491C32.9404 46.5321 32.9404 47.7119 32.9215 48.8949C32.9215 49.3039 33.0788 49.4266 33.4626 49.4203C34.2838 49.4014 35.1207 49.4235 36.1401 49.4235ZM35.7436 37.8361C34.847 37.8361 34.1108 37.8361 33.3777 37.8361C33.0631 37.8361 32.9121 37.9304 32.9121 38.2514C32.9121 39.4532 32.9121 40.6582 32.9121 41.86C32.9121 42.1275 33.0159 42.3099 33.2959 42.3005C35.0232 42.2281 36.7567 42.5113 38.4777 42.0897C38.9668 41.9758 39.4015 41.6961 39.7077 41.2981C40.014 40.9 40.173 40.4082 40.1577 39.9062C40.1291 39.4274 39.9384 38.9725 39.6171 38.6164C39.2958 38.2602 38.8629 38.0238 38.3896 37.9462C37.4583 37.7606 36.5176 37.8832 35.7436 37.8361Z" fill="#060606"/>
<path d="M88.4266 19.7549C88.7412 20.0255 88.4864 20.2551 88.3385 20.4722C87.3601 22.0028 85.8264 23.0945 84.0597 23.5177C82.0035 24.0628 79.8178 23.8205 77.931 22.8382C75.3763 21.4947 74.2153 19.2263 73.9793 16.4325C73.7434 13.6387 74.4135 11.1029 76.5592 9.1082C79.3688 6.49687 84.088 6.27664 86.7529 8.66145C88.5273 10.2566 88.9741 12.3267 88.7475 14.614C88.7035 15.0797 88.4015 15.0262 88.0931 15.0262H79.6425C78.8276 15.0262 78.7962 15.0262 78.8717 15.841C78.9198 16.9607 79.1394 18.0663 79.5229 19.1194C80.1522 20.6704 81.376 21.4664 82.9837 21.6646C84.9249 21.9037 86.6774 21.479 88.0648 19.994C88.1046 19.9307 88.1575 19.8766 88.2199 19.8354C88.2823 19.7941 88.3528 19.7667 88.4266 19.7549ZM81.6466 14.4064H83.9716C84.2863 14.4064 84.5663 14.3812 84.5631 13.9691C84.5631 12.5281 84.7424 11.0809 84.3712 9.65249C84.0566 8.43177 83.3644 7.76478 82.2224 7.6232C81.6923 7.56914 81.1587 7.68471 80.6984 7.95327C80.2382 8.22183 79.8751 8.62952 79.6614 9.11764C78.9252 10.6687 78.9377 12.3519 78.8308 14.0162C78.8087 14.3655 79.0573 14.4032 79.3184 14.4064H81.6466Z" fill="#EF8505"/>
<path d="M36.1465 18.6097C36.524 18.6884 36.5681 19.0156 36.7034 19.2389C37.1981 20.1516 37.7531 21.0302 38.3645 21.8691C39.6734 23.5492 42.6559 23.4076 43.927 22.3316C44.2232 22.0878 44.4574 21.7772 44.6103 21.4253C44.7632 21.0734 44.8304 20.6902 44.8064 20.3073C44.7825 19.9244 44.668 19.5526 44.4725 19.2225C44.277 18.8924 44.0059 18.6133 43.6816 18.4083C42.5332 17.6627 41.193 17.4173 39.9251 16.9863C38.3992 16.464 37.0463 15.6963 36.3069 14.1799C35.102 11.7007 36.373 8.62056 39.0567 7.60749C41.5957 6.64791 44.1252 6.81465 46.6075 7.89065C46.8309 7.98818 47.0606 8.07942 47.0386 8.40348C46.9694 9.40082 46.9159 10.395 46.8498 11.3892C46.8498 11.4584 46.7743 11.5213 46.7365 11.5874C46.4219 11.5497 46.359 11.2728 46.2395 11.0809C45.7801 10.3384 45.3963 9.55183 44.8929 8.83135C44.0623 7.64839 42.895 7.52883 41.6271 7.71131C41.1821 7.77495 40.7542 7.92684 40.3687 8.15807C40.0245 8.3432 39.7358 8.61657 39.5322 8.95011C39.3286 9.28366 39.2174 9.66537 39.21 10.0561C39.2027 10.4468 39.2994 10.8324 39.4903 11.1734C39.6812 11.5144 39.9594 11.7984 40.2963 11.9964C41.4541 12.7546 42.7786 13.0976 44.0717 13.4971C45.5316 13.9439 46.9222 14.5543 47.7402 15.9512C49.458 18.8834 47.8377 22.4701 44.465 23.3384C41.8476 24.0597 39.0611 23.8507 36.5807 22.7469C36.3797 22.6918 36.2054 22.5659 36.0898 22.3925C35.9742 22.2191 35.925 22.0098 35.9514 21.8031C36.0018 20.9693 35.9734 20.1325 35.9829 19.2861C35.9473 19.048 36.006 18.8053 36.1465 18.6097Z" fill="#EF8505"/>
<path d="M102.559 18.6002C102.874 18.7103 102.934 18.9872 103.063 19.2043C103.55 20.0976 104.09 20.9612 104.68 21.7904C106.049 23.5838 108.896 23.4013 110.233 22.4197C110.537 22.1938 110.784 21.8995 110.954 21.5604C111.123 21.2214 111.21 20.8472 111.208 20.4682C111.206 20.0892 111.114 19.716 110.941 19.3789C110.768 19.0418 110.518 18.7503 110.211 18.5279C109.267 17.8325 108.153 17.5651 107.065 17.2348C105.976 16.9044 104.935 16.5395 104.041 15.8221C101.779 14.0036 101.619 10.8669 103.676 8.79042C104.935 7.53194 106.508 7.14181 108.179 7.03169C109.795 6.91811 111.414 7.19883 112.898 7.8497C113.074 7.8932 113.227 8.00163 113.327 8.15329C113.427 8.30495 113.466 8.48866 113.436 8.66771C113.363 9.46055 113.341 10.2408 113.297 11.0494C113.305 11.1507 113.292 11.2525 113.259 11.3484C113.225 11.4443 113.172 11.5321 113.102 11.6062C112.737 11.5056 112.681 11.1658 112.533 10.9204C112.064 10.085 111.547 9.27715 110.985 8.50096C109.994 7.22676 106.854 7.41867 105.885 8.97289C105.602 9.47584 105.522 10.068 105.662 10.6279C105.802 11.1878 106.151 11.6729 106.637 11.9838C107.42 12.4998 108.28 12.8874 109.185 13.1321C110.636 13.5412 112.099 13.9313 113.275 14.9601C115.688 17.068 115.163 21.2934 112.287 22.7406C110.425 23.6468 108.335 23.9755 106.284 23.6845C105.134 23.5182 104.011 23.2008 102.943 22.7406C102.756 22.6983 102.592 22.5871 102.483 22.4291C102.374 22.2712 102.328 22.078 102.355 21.888C102.399 20.9913 102.355 20.0946 102.38 19.1948C102.393 19.0061 102.327 18.7858 102.559 18.6002Z" fill="#EF8505"/>
<path d="M89.4743 18.6191C89.9179 18.6411 89.9682 18.8834 90.0815 19.0658C90.6918 20.0506 91.1889 21.0951 91.9692 21.9886C93.3032 23.5366 96.0813 23.3761 97.3649 22.3976C97.6721 22.1594 97.9179 21.8512 98.0815 21.4986C98.2452 21.146 98.3221 20.7593 98.3058 20.3709C98.2895 19.9825 98.1804 19.6037 97.9877 19.2661C97.795 18.9285 97.5243 18.6419 97.1982 18.4303C96.2543 17.8011 95.194 17.5431 94.1401 17.2222C93.0737 16.9491 92.0676 16.4797 91.1732 15.8379C90.5637 15.3624 90.0803 14.7445 89.7655 14.0384C89.4508 13.3324 89.3142 12.5598 89.368 11.7886C89.4217 11.0175 89.6641 10.2713 90.0738 9.61576C90.4835 8.9602 91.0479 8.41533 91.7175 8.02902C93.3378 7.08517 95.0965 6.90899 96.9181 7.05056C97.9944 7.15301 99.0472 7.42815 100.036 7.86542C100.22 7.92294 100.374 8.04958 100.466 8.21863C100.558 8.38768 100.581 8.58592 100.53 8.77152C100.426 9.6965 100.392 10.6278 100.329 11.5748C99.9479 11.6031 99.885 11.342 99.7623 11.1437C99.2589 10.332 98.8184 9.48256 98.2773 8.69286C97.1604 7.08831 94.1243 7.51619 93.1553 8.74635C92.8052 9.20481 92.649 9.78232 92.7202 10.3548C92.7913 10.9272 93.0843 11.4488 93.536 11.8076C94.5204 12.5026 95.6307 12.9995 96.8049 13.2706C98.1043 13.6324 99.391 14.0414 100.42 14.9695C102.811 17.1246 102.308 21.2273 99.4382 22.7123C97.6103 23.6561 95.6628 23.8984 93.6209 23.7065C92.3861 23.5628 91.1794 23.2362 90.0406 22.7374C89.857 22.6866 89.6981 22.5709 89.5933 22.4118C89.4886 22.2527 89.4452 22.061 89.4711 21.8722C89.4994 20.7994 89.4743 19.7297 89.4743 18.6191Z" fill="#EF8505"/>
<path d="M78.1921 46.6737L76.7512 48.1178C76.6427 48.2252 76.5585 48.3547 76.5042 48.4974C76.45 48.6401 76.4269 48.7928 76.4365 48.9452C76.4365 49.8198 76.4365 50.6976 76.4365 51.5754C76.4365 51.9844 76.2824 52.1197 75.9048 52.1134C75.2756 52.1134 74.6464 52.1134 74.0171 52.1134C73.7182 52.1134 73.52 52.0505 73.52 51.6729C73.52 45.9437 73.52 40.2146 73.52 34.4445H76.4711V44.6192L76.6662 44.7262L78.0757 43.2255C79.2083 42.0205 80.3347 40.8155 81.4704 39.6105C81.5449 39.5162 81.6474 39.4479 81.763 39.4154C82.9003 39.3285 84.0425 39.3285 85.1798 39.4154C83.5784 41.3031 81.785 42.8133 80.2434 44.5846L83.462 49.1938C84.0241 50.0034 84.5862 50.8109 85.1483 51.6163C85.4063 51.9876 85.2584 52.126 84.862 52.126C84.0471 52.126 83.2291 52.126 82.4111 52.126C82.043 52.126 81.8952 51.8806 81.7221 51.6289C80.6944 50.1376 79.6603 48.6484 78.62 47.1613C78.4889 46.989 78.3459 46.8261 78.1921 46.6737Z" fill="#060606"/>
<path d="M54.8599 50.9115C54.5903 50.9964 54.3453 51.1454 54.1458 51.3457C52.1448 52.8811 48.9483 52.7363 47.2745 51.0311C45.6762 49.4045 46.0978 46.3118 48.0642 45.154C49.524 44.3014 51.1128 44.2102 52.7363 44.3864C53.3223 44.454 53.9035 44.5591 54.4761 44.701C54.8631 44.7922 54.989 44.6758 54.9921 44.2857C54.9921 42.8542 53.8658 41.7687 52.2581 41.6744C51.116 41.6032 49.9726 41.7914 48.9137 42.2249C48.3599 42.4483 48.0957 42.3193 47.9698 41.753C47.866 41.3251 47.7024 40.9098 47.5608 40.4945C47.5349 40.4445 47.5205 40.3893 47.5187 40.333C47.5168 40.2767 47.5276 40.2208 47.5503 40.1692C47.5729 40.1176 47.6068 40.0717 47.6494 40.0349C47.6921 39.9981 47.7424 39.9713 47.7968 39.9565C50.0777 39.0316 52.4122 38.6635 54.8065 39.4406C56.4897 39.9849 57.4209 41.2213 57.7135 42.936C58.0785 45.0628 57.8268 47.2085 57.8929 49.3448C57.9118 50.0558 57.874 50.77 57.8929 51.4842C57.9149 51.9718 57.7135 52.1386 57.2448 52.1134C56.7355 52.0851 56.225 52.0851 55.7157 52.1134C55.1683 52.148 54.8914 51.9781 54.9827 51.3898C55.0038 51.3062 55.0036 51.2186 54.9822 51.135C54.9608 51.0515 54.9187 50.9747 54.8599 50.9115ZM52.1605 46.1923C51.5114 46.1441 50.8609 46.2655 50.2728 46.5446C49.9178 46.7055 49.6231 46.9751 49.4314 47.3144C49.2397 47.6537 49.1608 48.0453 49.2063 48.4324C49.2284 48.7988 49.3665 49.1488 49.6007 49.4316C49.8348 49.7143 50.1529 49.9153 50.5088 50.0054C50.837 50.1153 51.1792 50.1778 51.525 50.1911C53.5323 50.21 55.077 49.1906 55.0613 47.2683C55.0874 47.0856 55.0402 46.9001 54.93 46.7521C54.8197 46.6041 54.6555 46.5058 54.473 46.4786C53.7166 46.2735 52.9346 46.1781 52.1511 46.1954L52.1605 46.1923Z" fill="#060606"/>
<path d="M89.3548 46.6391C89.3907 47.3761 89.6628 48.082 90.1307 48.6526C90.5987 49.2231 91.2378 49.6279 91.9535 49.8073C92.6584 49.9812 93.3958 49.9746 94.0974 49.7882C94.7991 49.6018 95.4425 49.2416 95.9681 48.7408C96.3079 48.4261 96.5218 48.4261 96.8175 48.7408C97.052 48.9927 97.3113 49.2204 97.5915 49.4203C98.1138 49.7916 97.9911 50.1502 97.5915 50.5026C95.8957 52.0379 93.9419 52.6766 91.6515 52.2802C86.3785 51.3615 85.2081 45.4939 87.3192 41.989C89.3894 38.5503 94.3541 38.0783 96.8868 40.7683C98.1452 42.1149 98.8594 44.4556 98.5826 46.6265L89.3548 46.6391ZM92.4444 44.7828C93.3882 44.7828 94.3321 44.7828 95.2539 44.7828C95.6377 44.7828 95.7887 44.6318 95.6881 44.2637C95.5908 43.8095 95.4185 43.3746 95.1784 42.9769C94.4202 41.8726 93.3693 41.3566 92.0322 41.5486C90.6951 41.7405 89.6254 42.892 89.3139 44.248C89.2164 44.6727 89.3296 44.7954 89.7449 44.7891C90.651 44.7703 91.5477 44.7828 92.4444 44.7828Z" fill="#060606"/>
<path d="M159.08 2.99835V6.2452C159.08 6.3679 159.055 6.49061 159.049 6.61016C159.014 7.49109 159.03 7.50997 159.892 7.50997H162.283C162.529 7.50997 162.739 7.53514 162.724 7.86235C162.708 8.18955 162.5 8.1518 162.29 8.1518C161.39 8.1518 160.493 8.16753 159.593 8.1518C159.187 8.1518 159.014 8.24618 159.018 8.69293C159.033 12.525 159.018 16.3602 159.04 20.1922C159.04 21.0071 159.263 21.7653 160.131 22.146C161 22.5267 161.679 22.253 162.353 21.759C162.5 21.6489 162.626 21.5136 162.771 21.3972C162.916 21.2808 163.038 21.0102 163.265 21.2336C163.491 21.457 163.265 21.6206 163.155 21.7716C161.896 23.4108 160.153 23.9362 158.165 23.738C156.891 23.609 155.717 23.2157 155.019 22.017C154.615 21.3039 154.411 20.4954 154.427 19.6763C154.427 16.1274 154.427 12.5795 154.427 9.03273C154.427 8.15809 154.427 8.17068 153.521 8.1518C153.093 8.1518 152.647 8.25877 152.234 8.05112C152.272 7.7365 152.486 7.78055 152.659 7.75538C154.08 7.5169 155.373 6.79034 156.315 5.70092C157.026 4.91437 157.731 4.12783 158.448 3.34128C158.599 3.15251 158.719 2.90396 159.08 2.99835Z" fill="#EF8505"/>
<path d="M152.738 23.0363C151.873 23.4139 145.344 23.3509 144.989 23.0835C145.02 22.9356 145.152 22.9199 145.266 22.8727C146.323 22.4386 146.486 22.1963 146.486 21.0322C146.486 17.7497 146.486 14.4672 146.486 11.1847C146.486 9.85382 146.433 9.77831 145.193 9.32526C145.099 9.29065 144.995 9.27177 144.954 9.08614C145.269 8.67399 145.832 8.69288 146.282 8.53242C147.641 8.04791 149.025 7.62947 150.4 7.18586C151.03 6.99079 151.221 7.16069 151.199 7.89375C151.067 11.9838 151.099 16.0518 151.092 20.1293C151.089 21.3437 150.919 22.6305 152.738 23.0363Z" fill="#EF8505"/>
<path d="M65.3212 39.0378C66.8892 39.0387 68.4273 39.4673 69.7699 40.2774C70.1537 40.5008 70.2198 40.7336 69.9744 41.1112C69.7499 41.47 69.5532 41.8455 69.3861 42.2344C69.2036 42.6528 68.9739 42.7 68.5869 42.4735C67.8363 42.0281 67.0113 41.7222 66.1518 41.5705C65.65 41.4638 65.1289 41.492 64.6416 41.6523C64.4055 41.7187 64.194 41.8527 64.033 42.0377C63.8721 42.2227 63.7686 42.4507 63.7355 42.6937C63.66 43.2537 64.0281 43.5589 64.4371 43.8043C65.3495 44.3518 66.4097 44.5279 67.3851 44.9181C68.0367 45.1345 68.6551 45.4406 69.2224 45.8273C69.9467 46.4053 70.4147 47.2449 70.5254 48.1649C70.636 49.0849 70.3805 50.0115 69.8139 50.7448C68.8701 51.9624 67.5109 52.3368 66.0637 52.3965C64.1036 52.4783 62.3763 51.7673 60.7812 50.6882C60.7166 50.6575 60.6602 50.6118 60.6168 50.5549C60.5733 50.498 60.5441 50.4315 60.5315 50.3611C60.5188 50.2906 60.5232 50.2182 60.5442 50.1498C60.5652 50.0813 60.6023 50.0189 60.6522 49.9677C60.9669 49.5335 61.2186 49.0836 61.4986 48.64C61.6873 48.3254 61.8698 48.4638 62.0963 48.6148C62.9315 49.1931 63.8722 49.6015 64.865 49.8167C65.3438 49.9161 65.8353 49.9405 66.3217 49.889C67.212 49.7884 67.706 49.4108 67.8067 48.7187C67.9073 48.0265 67.5738 47.5766 66.7149 47.262C65.6735 46.8813 64.6038 46.5635 63.5687 46.1954C61.8887 45.6008 61.0518 44.4996 61.0329 42.958C61.0329 41.2622 61.961 39.9785 63.6159 39.3839C64.1577 39.1629 64.7361 39.0455 65.3212 39.0378Z" fill="#060606"/>
<path d="M108.673 49.3636C108.673 50.0211 108.673 50.6472 108.673 51.2765C108.673 51.3787 108.641 51.4785 108.58 51.5608C108.52 51.643 108.434 51.7034 108.336 51.7327C107.661 52.0726 106.919 52.2555 106.164 52.2675C105.408 52.2795 104.66 52.1203 103.975 51.8019C102.773 51.2387 102.402 50.0967 102.386 48.8539C102.361 46.8372 102.386 44.8174 102.386 42.8007C102.386 41.8285 102.386 41.797 101.417 41.8348C100.854 41.8568 100.694 41.6429 100.747 41.1237C100.785 40.7987 100.785 40.4703 100.747 40.1453C100.672 39.5381 100.883 39.3052 101.521 39.343C102.38 39.3933 102.383 39.343 102.386 38.4841C102.386 37.7699 102.386 37.0557 102.386 36.3447C102.386 35.9388 102.49 35.7406 102.94 35.7626C103.551 35.7941 104.167 35.791 104.778 35.7626C105.19 35.7438 105.312 35.9231 105.306 36.3038C105.306 37.1186 105.306 37.9367 105.306 38.7515C105.306 39.1983 105.476 39.3807 105.935 39.3556C106.69 39.3367 107.449 39.3556 108.204 39.3556C108.622 39.3556 108.802 39.5003 108.783 39.925C108.764 40.3498 108.764 40.8217 108.783 41.2685C108.802 41.7152 108.647 41.8537 108.21 41.8379C107.436 41.8065 106.659 41.8379 105.882 41.8379C105.495 41.8379 105.322 41.9795 105.325 42.3728C105.325 44.3108 105.303 46.2489 105.341 48.1838C105.363 49.3825 106.285 49.8953 107.707 49.5587C108.009 49.4188 108.34 49.352 108.673 49.3636Z" fill="#060606"/>
<path d="M148.78 5.25412C147.282 5.25412 146.131 4.20959 146.112 2.82212C146.093 1.43466 147.248 0.305176 148.758 0.305176C150.268 0.305176 151.413 1.40004 151.388 2.83785C151.366 4.2033 150.246 5.24783 148.78 5.25412Z" fill="#EF8505"/>
<path d="M55.0016 2.8064C55.0016 4.22218 53.8847 5.26357 52.3746 5.25413C50.8644 5.24469 49.7632 4.20959 49.7664 2.78437C49.7695 1.35915 50.899 0.283163 52.4249 0.295748C52.761 0.283381 53.0962 0.339361 53.41 0.460306C53.7239 0.581252 54.0099 0.764639 54.2508 0.999367C54.4917 1.2341 54.6825 1.51529 54.8115 1.82589C54.9406 2.1365 55.0053 2.47006 55.0016 2.8064Z" fill="#EF8505"/>
<rect x="112.948" y="28.6302" width="66.6991" height="28.3157" rx="2.51695" fill="url(#paint0_linear_3_1110)"/>
<path d="M119.325 43.5778C119.325 41.0074 119.325 38.4401 119.325 35.8696C119.325 35.3159 119.473 35.0863 120.052 35.1334C120.582 35.1744 121.114 35.1744 121.644 35.1334C122.154 35.102 122.32 35.2876 122.314 35.7973C122.292 37.7133 122.333 39.6325 122.292 41.5485C122.292 42.1777 122.49 42.3382 123.098 42.3288C125.3 42.2942 127.502 42.3036 129.705 42.3288C130.202 42.3288 130.384 42.184 130.378 41.6681C130.353 39.73 130.378 37.7951 130.356 35.8571C130.356 35.275 130.545 35.0988 131.098 35.1397C131.652 35.1806 132.24 35.1397 132.813 35.1397C133.194 35.1397 133.357 35.2907 133.357 35.6903C133.357 40.9717 133.357 46.2531 133.357 51.5345C133.357 51.9624 133.197 52.1197 132.775 52.104C132.206 52.0788 131.633 52.0725 131.061 52.0882C130.557 52.0882 130.346 51.9404 130.356 51.3866C130.39 49.4989 130.356 47.5923 130.381 45.6952C130.381 45.1068 130.192 44.9149 129.604 44.9212C127.418 44.9485 125.233 44.9485 123.047 44.9212C122.456 44.9212 122.273 45.1068 122.283 45.6983C122.317 47.6143 122.283 49.5304 122.305 51.4464C122.305 51.9278 122.147 52.1134 121.676 52.0914C121.103 52.0693 120.53 52.0662 119.961 52.0914C119.483 52.1165 119.332 51.9435 119.332 51.4621C119.335 48.8382 119.325 46.208 119.325 43.5778Z" fill="#FEFDFD"/>
<path d="M145.539 50.5089C145.052 50.8235 144.756 51.2828 144.328 51.588C142.809 52.6734 141.182 52.6671 139.555 51.9844C137.929 51.3017 137.259 49.9111 137.155 48.209C136.982 45.4404 137.12 42.6654 137.073 39.8936C137.073 39.472 137.24 39.3053 137.658 39.3179C138.25 39.3179 138.841 39.3368 139.433 39.3179C139.901 39.3179 140.078 39.4689 140.062 39.9471C140.04 42.1274 140.062 44.3077 140.062 46.4912C140.056 46.8161 140.083 47.1409 140.144 47.4602C140.484 49.049 141.462 49.8041 143.004 49.6971C143.688 49.6793 144.339 49.3969 144.819 48.9094C145.3 48.4219 145.572 47.7671 145.58 47.0827C145.656 45.3302 145.615 43.5747 145.621 41.8222C145.621 41.171 145.621 40.5166 145.621 39.8653C145.621 39.5224 145.722 39.3116 146.099 39.3147H148.122C148.547 39.3147 148.607 39.579 148.607 39.944C148.607 41.5171 148.607 43.1216 148.607 44.7136C148.607 46.9348 148.588 49.1591 148.607 51.3803C148.607 51.9624 148.418 52.1386 147.868 52.1008C147.317 52.0631 146.722 52.082 146.153 52.1008C145.763 52.1008 145.596 51.9687 145.609 51.566C145.66 51.2126 145.636 50.8525 145.539 50.5089Z" fill="#FEFDFD"/>
<path d="M155.346 40.8815C155.66 40.7746 155.805 40.5134 156.007 40.3215C157.341 39.0347 158.933 38.783 160.663 39.2172C162.293 39.6294 163.196 40.7683 163.595 42.3634C163.724 42.8567 163.791 43.3638 163.796 43.8736C163.796 46.3905 163.796 48.9326 163.796 51.459C163.796 51.9781 163.623 52.148 163.123 52.1197C162.593 52.0867 162.061 52.0867 161.531 52.1197C160.987 52.1606 160.782 51.9907 160.792 51.4055C160.823 49.2661 160.792 47.1236 160.792 44.981C160.804 44.5737 160.77 44.1663 160.691 43.7666C160.348 42.3319 159.263 41.5831 157.79 41.7216C157.088 41.7746 156.433 42.0948 155.96 42.6164C155.488 43.1379 155.233 43.821 155.248 44.5248C155.214 46.7901 155.248 49.0522 155.248 51.3174C155.248 52.1134 155.248 52.1134 154.43 52.1134C153.94 52.1134 153.449 52.0914 152.961 52.1134C152.473 52.1354 152.244 51.9435 152.247 51.4055C152.266 48.7942 152.247 46.186 152.247 43.5747C152.247 42.3728 152.247 41.1678 152.247 39.966C152.247 39.513 152.42 39.3368 152.857 39.3368C153.468 39.3368 154.081 39.3368 154.695 39.3368C155.122 39.3368 155.27 39.5098 155.255 39.9283C155.194 40.2482 155.226 40.5788 155.346 40.8815Z" fill="#FEFDFD"/>
<path d="M174.223 49.307C174.293 50.0034 174.3 50.7046 174.245 51.4023C174.229 51.6257 174.019 51.7169 173.824 51.8082C172.555 52.3711 171.116 52.4107 169.818 51.9183C168.639 51.4778 168.063 50.5025 168.022 49.3007C167.95 47.1613 167.975 45.0187 167.962 42.8793C167.962 41.7624 168.044 41.8096 166.955 41.8442C166.48 41.8442 166.276 41.7058 166.307 41.215C166.339 40.7242 166.326 40.3183 166.307 39.8716C166.292 39.5003 166.449 39.3776 166.811 39.365C167.959 39.3178 167.959 39.3052 167.959 38.1443C167.959 37.5528 167.981 36.9613 167.959 36.3699C167.937 35.9074 168.126 35.7595 168.569 35.7815C169.142 35.8067 169.715 35.8067 170.287 35.7815C170.731 35.7595 170.916 35.9137 170.894 36.373C170.866 37.0872 170.894 37.8014 170.894 38.5156C170.894 39.3713 170.894 39.3713 171.722 39.3713C172.398 39.3713 173.072 39.387 173.745 39.3713C174.173 39.3713 174.305 39.5381 174.314 39.9533C174.365 41.8411 174.377 41.8411 172.477 41.8411C170.904 41.8411 170.904 41.8411 170.904 43.4142C170.904 44.9872 170.904 46.595 170.942 48.1838C170.964 49.1276 171.423 49.5304 172.361 49.587C172.965 49.6216 173.544 49.4171 174.223 49.307Z" fill="#FEFDFD"/>
</g>
<defs>
<linearGradient id="paint0_linear_3_1110" x1="179.647" y1="41.3723" x2="104.453" y2="41.3723" gradientUnits="userSpaceOnUse">
<stop stop-color="#EF8505"/>
<stop offset="1" stop-color="#FBC37F"/>
</linearGradient>
<clipPath id="clip0_3_1110">
<rect width="181" height="57.1441" fill="white"/>
</clipPath>
</defs>
</svg>
