<svg width="1526" height="1462" viewBox="0 0 1526 1462" xmlns="http://www.w3.org/2000/svg">
  <path d="M1302.18 489.341C1323.8 494.916 1331.27 521.802 1315.63 537.735L758.157 1105.77C742.52 1121.7 715.499 1114.74 709.519 1093.23L496.323 326.418C490.343 304.91 509.889 284.994 531.506 290.569L1302.18 489.341Z" stroke="#FF7A3D" stroke-opacity="0.2" stroke-width="2" fill="none"/>
  <path d="M1241.39 555.151C1263 560.727 1270.48 587.612 1254.84 603.545L697.362 1171.58C681.725 1187.52 654.704 1180.55 648.724 1159.04L435.528 392.229C429.548 370.721 449.094 350.804 470.711 356.38L1241.39 555.151Z" stroke="#FF7A3D" stroke-opacity="0.3" stroke-width="2" fill="none"/>
  <path d="M1182.74 612.996C1204.35 618.571 1211.83 645.456 1196.19 661.389L638.713 1229.43C623.076 1245.36 596.055 1238.39 590.075 1216.88L376.88 450.073C370.9 428.565 390.446 408.649 412.063 414.224L1182.74 612.996Z" stroke="#FF7A3D" stroke-opacity="0.4" stroke-width="2" fill="none"/>
  <path d="M1124.09 670.84C1145.7 676.415 1153.18 703.3 1137.54 719.233L580.065 1287.27C564.428 1303.2 537.407 1296.23 531.427 1274.73L318.231 507.917C312.251 486.409 331.797 466.493 353.414 472.068L1124.09 670.84Z" stroke="#FF7A3D" stroke-opacity="0.5" stroke-width="2" fill="none"/>
</svg>
